# File created by Blade
# Date/Time:  Wed Jan 21 14:28:11 2015
# Frame Rate: 120.000 fps
#------------------------------------------------------
:FULLY-SPECIFIED
:DEGREES
246
root 18.713070 35.492066 -21.592199 -174.246234 -1.493503 -178.421494
Spine -9.395465 -2.750358 0.650584
Head -0.313671 0.642308 2.052933
LeftShoulder -24.705104 1.672822 11.544646
LeftArm -54.712161 6.443531 -87.844476
LeftForeArm 21.759227 -0.000000 -1.468421
LeftHand -4.862221 -0.000000 -43.420193
LeftHandThumb1 -26.253704 0.000000 33.147579
RightShoulder -29.127746 -35.249575 1.878013
RightArm -16.593526 -16.107887 84.558261
RightForeArm -42.421442 -0.000000 7.359887
RightHand 1.382210 -0.000000 46.805268
RightHandThumb1 -24.326973 -0.000000 -32.862282
LeftUpLeg 3.118309 9.006926 2.789853
LeftLeg -6.309942 -0.000000 0.000000
LeftFoot -20.979042 27.608814 -12.944401
LeftToeBase 26.891393 -0.000000 -0.000000
RightUpLeg 0.755487 -12.131583 -0.570410
RightLeg -2.217815 -0.000000 0.000000
RightFoot -20.743959 -20.794616 17.327820
RightToeBase 25.370364 -0.000000 -0.000000
247
root 18.713164 35.492326 -21.579060 -174.186088 -1.464416 -178.418213
Spine -9.356975 -2.696444 0.618896
Head -0.506091 0.542933 2.082304
LeftShoulder -24.675200 1.565515 11.540110
LeftArm -54.610679 6.479090 -87.940170
LeftForeArm 21.576256 -0.000000 -1.466662
LeftHand -4.824042 -0.000000 -43.409566
LeftHandThumb1 -26.253704 0.000000 33.147579
RightShoulder -29.047092 -35.148734 1.902363
RightArm -16.527733 -16.416870 84.789612
RightForeArm -42.324895 -0.000000 7.375236
RightHand 1.517376 -0.000000 46.804757
RightHandThumb1 -24.326973 -0.000000 -32.862282
LeftUpLeg 3.044632 9.013656 2.778570
LeftLeg -6.317377 -0.000000 0.000000
LeftFoot -20.964463 27.638161 -12.914805
LeftToeBase 26.935741 -0.000000 -0.000000
RightUpLeg 0.686435 -12.062503 -0.554426
RightLeg -2.251386 -0.000000 0.000000
RightFoot -20.728504 -20.820068 17.354716
RightToeBase 25.323706 -0.000000 -0.000000
248
root 18.714478 35.492780 -21.565284 -174.129948 -1.440195 -178.413467
Spine -9.312230 -2.670594 0.598388
Head -0.686845 0.509279 2.096851
LeftShoulder -24.648291 1.419835 11.538472
LeftArm -54.538708 6.442511 -87.936799
LeftForeArm 21.484383 0.000000 -1.475266
LeftHand -4.864201 0.000000 -43.417069
LeftHandThumb1 -26.253704 0.000000 33.147579
RightShoulder -28.976733 -35.022964 1.912425
RightArm -16.443187 -16.746073 84.999066
RightForeArm -42.159995 -0.000000 7.333052
RightHand 1.477813 -0.000000 46.724848
RightHandThumb1 -24.326973 -0.000000 -32.862282
LeftUpLeg 2.975153 9.009638 2.772064
LeftLeg -6.327071 -0.000000 0.000000
LeftFoot -20.939769 27.668494 -12.879641
LeftToeBase 26.943863 -0.000000 -0.000000
RightUpLeg 0.603183 -12.053695 -0.534089
RightLeg -2.252451 -0.000000 0.000000
RightFoot -20.708825 -20.810819 17.329494
RightToeBase 25.423402 -0.000000 -0.000000
249
root 18.716020 35.493453 -21.551791 -174.073873 -1.423462 -178.405824
Spine -9.270599 -2.641635 0.573080
Head -0.858872 0.462677 2.115813
LeftShoulder -24.607620 1.254399 11.561420
LeftArm -54.494300 6.373354 -87.891576
LeftForeArm 21.428394 -0.000000 -1.505537
LeftHand -4.769020 -0.000000 -43.404694
LeftHandThumb1 -26.253704 0.000000 33.147579
RightShoulder -28.913625 -34.854333 1.934214
RightArm -16.422523 -16.955604 85.160769
RightForeArm -42.092176 0.000000 7.329959
RightHand 1.529993 -0.000000 46.736094
RightHandThumb1 -24.326973 -0.000000 -32.862282
LeftUpLeg 2.898280 9.000179 2.769363
LeftLeg -6.325375 -0.000000 0.000000
LeftFoot -20.937842 27.695563 -12.865941
LeftToeBase 26.960774 -0.000000 -0.000000
RightUpLeg 0.515555 -12.102821 -0.508218
RightLeg -2.245331 -0.000000 0.000000
RightFoot -20.680887 -20.757942 17.316060
RightToeBase 25.395129 -0.000000 -0.000000
250
root 18.717214 35.494028 -21.538343 -174.014012 -1.403755 -178.409117
Spine -9.233763 -2.642792 0.538603
Head -1.028849 0.456068 2.127681
LeftShoulder -24.607875 1.080692 11.628956
LeftArm -54.477852 6.308852 -87.852046
LeftForeArm 21.372475 -0.000000 -1.519186
LeftHand -4.827658 -0.000000 -43.493558
LeftHandThumb1 -26.253704 0.000000 33.147579
RightShoulder -28.817298 -34.647568 1.928222
RightArm -16.423067 -16.859067 85.229703
RightForeArm -42.183502 0.000000 7.324694
RightHand 1.447495 -0.000000 46.648899
RightHandThumb1 -24.326973 -0.000000 -32.862282
LeftUpLeg 2.804958 9.031317 2.755188
LeftLeg -6.298725 -0.000000 0.000000
LeftFoot -20.923863 27.683929 -12.844008
LeftToeBase 26.956478 -0.000000 -0.000000
RightUpLeg 0.424715 -12.130650 -0.491093
RightLeg -2.237977 -0.000000 0.000000
RightFoot -20.651332 -20.740998 17.317759
RightToeBase 25.278241 -0.000000 -0.000000
